Coordinates
version=1
nRows=54
nColumns=12
inDegrees=yes

Units are S.I. units (second, meters, Newtons, ...)
Angles are in degrees

endheader
time	SC_y	SC_z	SC_x	AC_y	AC_z	AC_x	GH_y	GH_z	GH_yy	EL_x	PS_y
       0.0              -28.87          10.72          33.17          37.78         -4.431          14.55          39.44          22.05         -99.58          44.61          86.74
   0.01562              -28.87          10.72          33.17          37.78         -4.433          14.55          39.45          22.05         -99.56          44.62          86.74
   0.03124              -28.88          10.72          33.16          37.78         -4.435          14.54          39.45          22.06         -99.54          44.62          86.75
   0.04686              -28.88          10.72          33.16          37.78         -4.437          14.53          39.46          22.06         -99.52          44.63          86.75
   0.06247              -28.88          10.71          33.16          37.78          -4.44          14.53          39.46          22.06          -99.5          44.64          86.75
   0.07809              -28.89          10.71          33.16          37.78         -4.442          14.52          39.47          22.06         -99.48          44.64          86.75
   0.09371              -28.89          10.71          33.15          37.78         -4.445          14.52          39.47          22.06         -99.45          44.65          86.75
    0.1093               -28.9          10.71          33.15          37.78         -4.448          14.51          39.48          22.06         -99.42          44.66          86.75
    0.1249               -28.9           10.7          33.15          37.78         -4.451           14.5          39.49          22.06         -99.39          44.67          86.76
    0.1406              -28.91           10.7          33.15          37.78         -4.454          14.49          39.49          22.06         -99.36          44.68          86.76
    0.1562              -28.92           10.7          33.14          37.78         -4.458          14.49           39.5          22.06         -99.32          44.69          86.76
    0.1718              -28.92           10.7          33.14          37.79         -4.462          14.48          39.51          22.06         -99.29           44.7          86.76
    0.1874              -28.93          10.69          33.13          37.79         -4.466          14.47          39.52          22.07         -99.25          44.72          86.77
     0.203              -28.94          10.69          33.13          37.79          -4.47          14.46          39.53          22.07          -99.2          44.73          86.77
    0.2187              -28.95          10.68          33.13          37.79         -4.475          14.45          39.54          22.07         -99.16          44.74          86.77
    0.2343              -28.96          10.68          33.12          37.79          -4.48          14.43          39.55          22.07         -99.11          44.76          86.78
    0.2499              -28.97          10.67          33.12          37.79         -4.486          14.42          39.56          22.07         -99.05          44.78          86.78
    0.2655              -28.98          10.67          33.11           37.8         -4.492           14.4          39.58          22.07         -98.99           44.8          86.78
    0.2811              -28.99          10.66           33.1           37.8         -4.499          14.39          39.59          22.08         -98.93          44.82          86.79
    0.2967               -29.0          10.65           33.1           37.8         -4.506          14.37          39.61          22.08         -98.85          44.84          86.79
    0.3124              -29.01          10.65          33.09           37.8         -4.515          14.35          39.63          22.08         -98.78          44.86           86.8
     0.328              -29.03          10.64          33.08          37.81         -4.524          14.33          39.65          22.09         -98.69          44.89          86.81
    0.3436              -29.05          10.63          33.07          37.81         -4.533          14.31          39.67          22.09         -98.59          44.92          86.81
    0.3592              -29.07          10.62          33.06          37.81         -4.544          14.28          39.69          22.09         -98.49          44.96          86.82
    0.3748              -29.09          10.61          33.05          37.82         -4.557          14.25          39.72           22.1         -98.37          44.99          86.83
    0.3905              -29.11           10.6          33.04          37.82          -4.57          14.22          39.75           22.1         -98.24          45.03          86.84
    0.4061              -29.14          10.58          33.02          37.83         -4.586          14.18          39.78          22.11         -98.09          45.08          86.85
    0.4217              -29.17          10.57          33.01          37.84         -4.603          14.14          39.82          22.11         -97.92          45.13          86.86
    0.4373               -29.2          10.55          32.99          37.84         -4.622           14.1          39.86          22.12         -97.74          45.19          86.87
    0.4529              -29.24          10.53          32.97          37.85         -4.644          14.05          39.91          22.13         -97.52          45.26          86.89
    0.4686              -29.28          10.51          32.94          37.86         -4.669          13.99          39.97          22.13         -97.28          45.34           86.9
    0.4842              -29.33          10.48          32.92          37.87         -4.698          13.92          40.03          22.14          -97.0          45.42          86.92
    0.4998              -29.39          10.45          32.88          37.88         -4.732          13.84           40.1          22.16         -96.68          45.53          86.95
    0.5154              -29.46          10.42          32.85          37.89          -4.77          13.75          40.19          22.17          -96.3          45.64          86.97
     0.531              -29.54          10.38          32.81          37.91         -4.816          13.64          40.29          22.18         -95.87          45.78           87.0
    0.5466              -29.63          10.33          32.75          37.93         -4.869          13.51           40.4           22.2         -95.35          45.94          87.04
    0.5623              -29.74          10.27          32.69          37.95         -4.933          13.36          40.54          22.22         -94.73          46.14          87.08
    0.5779              -29.87           10.2          32.62          37.98         -5.009          13.19          40.71          22.25          -94.0          46.37          87.13
    0.5935              -30.03          10.12          32.54          38.01         -5.101          12.97          40.91          22.28         -93.11          46.65           87.2
    0.6091              -30.23          10.02          32.43          38.05         -5.213           12.7          41.16          22.32         -92.02          46.99          87.27
    0.6247              -30.47          9.897           32.3           38.1         -5.352          12.37          41.46          22.37         -90.68          47.42          87.37
    0.6404              -30.77          9.741          32.14          38.16         -5.525          11.97          41.84          22.42         -89.01          47.94          87.48
     0.656              -31.15          9.546          31.93          38.23         -5.743          11.45          42.32           22.5          -86.9          48.61          87.63
    0.6716              -31.63          9.297          31.67          38.33          -6.02           10.8          42.93          22.59         -84.22          49.45          87.82
    0.6872              -32.24          8.979          31.34          38.45         -6.375          9.958          43.71          22.71         -80.79          50.54          88.06
    0.7028              -33.03          8.571          30.91          38.61         -6.831          8.882          44.71          22.86         -76.39          51.92          88.37
    0.7184              -34.04          8.049          30.36          38.82         -7.412          7.509          45.98          23.06         -70.77           53.7          88.77
    0.7341              -35.31          7.393          29.67          39.07         -8.144          5.782          47.59          23.31          -63.7          55.93          89.26
    0.7497              -36.85          6.594          28.83          39.38         -9.035          3.677          49.54          23.61         -55.08          58.64          89.87
    0.7653              -38.65          5.668          27.86          39.75         -10.07          1.237          51.81          23.96          -45.1          61.79          90.57
    0.7809              -40.59          4.665           26.8          40.14         -11.19         -1.405          54.27          24.33         -34.28           65.2          91.33
    0.7965              -42.53          3.662          25.75          40.53         -12.31         -4.046          56.72          24.71         -23.47          68.61          92.09
    0.8122              -44.32          2.736          24.77          40.89         -13.34         -6.486          58.99          25.06         -13.49          71.76          92.79
    0.8278              -45.86          1.937          23.94           41.2         -14.23         -8.591          60.94          25.36         -4.871          74.48          93.39
